<svg width="1600" height="1120" viewBox="0 0 1600 1120" fill="none" xmlns="http://www.w3.org/2000/svg">
  <rect width="1600" height="1120" rx="40" fill="#F7FBFF"/>
  <rect x="84" y="84" width="1432" height="952" rx="36" fill="url(#a)"/>
  <circle cx="1280" cy="234" r="150" fill="#DAF4FF"/>
  <circle cx="298" cy="860" r="210" fill="#E2F7EC"/>
  <rect x="196" y="174" width="1208" height="772" rx="34" fill="#FFFFFF"/>
  <rect x="196" y="174" width="1208" height="112" rx="34" fill="#0B1929"/>
  <circle cx="262" cy="230" r="12" fill="#FF9DA0"/>
  <circle cx="304" cy="230" r="12" fill="#FFD26F"/>
  <circle cx="346" cy="230" r="12" fill="#67E2A0"/>
  <rect x="248" y="350" width="384" height="522" rx="28" fill="#F5FAFD"/>
  <circle cx="440" cy="474" r="78" fill="#D8ECFA"/>
  <circle cx="440" cy="454" r="34" fill="#0B1929"/>
  <path d="M372 564C390 516 434 498 440 498C446 498 490 516 508 564V590H372V564Z" fill="#0B1929"/>
  <rect x="312" y="650" width="256" height="18" rx="9" fill="#0B1929"/>
  <rect x="334" y="694" width="212" height="14" rx="7" fill="#A6BBCC"/>
  <rect x="696" y="350" width="460" height="72" rx="22" fill="#F7FAFC"/>
  <rect x="732" y="374" width="164" height="16" rx="8" fill="#9AB1C4"/>
  <rect x="696" y="460" width="460" height="72" rx="22" fill="#F7FAFC"/>
  <rect x="732" y="484" width="224" height="16" rx="8" fill="#9AB1C4"/>
  <rect x="696" y="570" width="460" height="72" rx="22" fill="#F7FAFC"/>
  <rect x="732" y="594" width="190" height="16" rx="8" fill="#9AB1C4"/>
  <rect x="696" y="680" width="460" height="72" rx="22" fill="#F7FAFC"/>
  <rect x="732" y="704" width="250" height="16" rx="8" fill="#9AB1C4"/>
  <rect x="696" y="794" width="196" height="58" rx="20" fill="#0B1929"/>
  <rect x="942" y="794" width="214" height="58" rx="20" fill="#EAF6FF"/>
  <rect x="1220" y="384" width="128" height="128" rx="28" fill="#EAF8FF"/>
  <path d="M1270 445h28M1284 431v28" stroke="#0B1929" stroke-width="10" stroke-linecap="round"/>
  <rect x="1210" y="568" width="148" height="232" rx="28" fill="#F4FBF7"/>
  <circle cx="1284" cy="650" r="34" fill="#0B1929"/>
  <path d="M1268 650l12 12 20-24" stroke="#FFFFFF" stroke-width="8" stroke-linecap="round" stroke-linejoin="round"/>
  <rect x="1240" y="726" width="88" height="14" rx="7" fill="#7EBE9A"/>
  <defs>
    <linearGradient id="a" x1="800" y1="84" x2="800" y2="1036" gradientUnits="userSpaceOnUse">
      <stop stop-color="#F8FCFF"/>
      <stop offset="1" stop-color="#EEF6FB"/>
    </linearGradient>
  </defs>
</svg>
